<svg xmlns="http://www.w3.org/2000/svg" viewBox="0 0 1056 512" width="1056" height="512" role="img" font-family="system-ui, -apple-system, &quot;Segoe UI&quot;, Helvetica, Arial, sans-serif">
<title>zlib compression: speed against ratio</title><desc>Each tool at its fast, balanced, and dense levels; up and to the right is better.</desc>
<rect width="1056" height="512" rx="12" fill="#1a1a19"/>
<text x="28.0" y="38.0" font-size="20" fill="#ffffff" text-anchor="start" font-weight="650" >zlib compression: speed against compression ratio</text>
<text x="28.0" y="62.0" font-size="13" fill="#c3c2b7" text-anchor="start" font-weight="400" >Each line is one tool at its fast, balanced, and dense levels (numbers are levels on the tool's own scale). Up and to the right is better.</text>
<circle cx="34.0" cy="84.0" r="5.5" fill="#f7a41d" stroke="#1a1a19" stroke-width="2"></circle>
<text x="46.0" y="88.0" font-size="12" fill="#c3c2b7" text-anchor="start" font-weight="400" >zipir</text>
<rect x="92.6" y="79.0" width="9.9" height="9.9" rx="1.5" fill="#3987e5" stroke="#1a1a19" stroke-width="2"></rect>
<text x="109.6" y="88.0" font-size="12" fill="#c3c2b7" text-anchor="start" font-weight="400" >zlib-ng</text>
<text x="66.0" y="112.0" font-size="13" fill="#ffffff" text-anchor="start" font-weight="600" >Sequencing: FASTQ, 57.2 MB</text>
<line x1="108.9" y1="126.0" x2="108.9" y2="416.0" stroke="#2c2c2a" stroke-width="1" />
<text x="108.9" y="433.0" font-size="11" fill="#898781" text-anchor="middle" font-weight="400" >10</text>
<line x1="160.5" y1="126.0" x2="160.5" y2="416.0" stroke="#2c2c2a" stroke-width="1" />
<text x="160.5" y="433.0" font-size="11" fill="#898781" text-anchor="middle" font-weight="400" >20</text>
<line x1="228.7" y1="126.0" x2="228.7" y2="416.0" stroke="#2c2c2a" stroke-width="1" />
<text x="228.7" y="433.0" font-size="11" fill="#898781" text-anchor="middle" font-weight="400" >50</text>
<line x1="280.3" y1="126.0" x2="280.3" y2="416.0" stroke="#2c2c2a" stroke-width="1" />
<text x="280.3" y="433.0" font-size="11" fill="#898781" text-anchor="middle" font-weight="400" >100</text>
<line x1="331.9" y1="126.0" x2="331.9" y2="416.0" stroke="#2c2c2a" stroke-width="1" />
<text x="331.9" y="433.0" font-size="11" fill="#898781" text-anchor="middle" font-weight="400" >200</text>
<line x1="66.0" y1="378.6" x2="366.0" y2="378.6" stroke="#2c2c2a" stroke-width="1" />
<text x="60.0" y="382.6" font-size="11" fill="#898781" text-anchor="end" font-weight="400" >1.75</text>
<line x1="66.0" y1="316.7" x2="366.0" y2="316.7" stroke="#2c2c2a" stroke-width="1" />
<text x="60.0" y="320.7" font-size="11" fill="#898781" text-anchor="end" font-weight="400" >2.00</text>
<line x1="66.0" y1="254.9" x2="366.0" y2="254.9" stroke="#2c2c2a" stroke-width="1" />
<text x="60.0" y="258.9" font-size="11" fill="#898781" text-anchor="end" font-weight="400" >2.25</text>
<line x1="66.0" y1="193.0" x2="366.0" y2="193.0" stroke="#2c2c2a" stroke-width="1" />
<text x="60.0" y="197.0" font-size="11" fill="#898781" text-anchor="end" font-weight="400" >2.50</text>
<line x1="66.0" y1="131.1" x2="366.0" y2="131.1" stroke="#2c2c2a" stroke-width="1" />
<text x="60.0" y="135.1" font-size="11" fill="#898781" text-anchor="end" font-weight="400" >2.75</text>
<line x1="66.0" y1="416.0" x2="366.0" y2="416.0" stroke="#383835" stroke-width="1" />
<path d="M331.2,396.7 L234.0,171.1 L74.7,156.3" fill="none" stroke="#3987e5" stroke-width="2" stroke-linejoin="round" stroke-linecap="round" opacity="0.85"/>
<rect x="326.3" y="391.7" width="9.9" height="9.9" rx="1.5" fill="#3987e5" stroke="#1a1a19" stroke-width="2"><title>zlib-ng level 1: 198.2 MB/s, ratio 1.677</title></rect>
<text x="339.2" y="389.7" font-size="10" fill="#898781" text-anchor="start" font-weight="400" >1</text>
<rect x="229.1" y="166.1" width="9.9" height="9.9" rx="1.5" fill="#3987e5" stroke="#1a1a19" stroke-width="2"><title>zlib-ng level 5: 53.7 MB/s, ratio 2.589</title></rect>
<text x="242.0" y="164.1" font-size="10" fill="#898781" text-anchor="start" font-weight="400" >5</text>
<rect x="69.8" y="151.4" width="9.9" height="9.9" rx="1.5" fill="#3987e5" stroke="#1a1a19" stroke-width="2"><title>zlib-ng level 9: 6.3 MB/s, ratio 2.648</title></rect>
<text x="82.7" y="149.3" font-size="10" fill="#898781" text-anchor="start" font-weight="400" >9</text>
<path d="M353.6,231.1 L249.2,174.7 L149.3,155.0" fill="none" stroke="#f7a41d" stroke-width="2" stroke-linejoin="round" stroke-linecap="round" opacity="0.85"/>
<circle cx="353.6" cy="231.1" r="5.5" fill="#f7a41d" stroke="#1a1a19" stroke-width="2"><title>zipir level 1: 267.9 MB/s, ratio 2.346</title></circle>
<text x="361.6" y="224.1" font-size="10" fill="#898781" text-anchor="start" font-weight="400" >1</text>
<circle cx="249.2" cy="174.7" r="5.5" fill="#f7a41d" stroke="#1a1a19" stroke-width="2"><title>zipir level 5: 65.9 MB/s, ratio 2.574</title></circle>
<text x="257.2" y="167.7" font-size="10" fill="#898781" text-anchor="start" font-weight="400" >5</text>
<circle cx="149.3" cy="155.0" r="5.5" fill="#f7a41d" stroke="#1a1a19" stroke-width="2"><title>zipir level 9: 17.2 MB/s, ratio 2.654</title></circle>
<text x="157.3" y="148.0" font-size="10" fill="#898781" text-anchor="start" font-weight="400" >9</text>
<text x="216.0" y="452.0" font-size="11" fill="#c3c2b7" text-anchor="middle" font-weight="400" >MB/s, log scale</text>
<text x="396.0" y="112.0" font-size="13" fill="#ffffff" text-anchor="start" font-weight="600" >Mass spectrometry: PRIDE XML, 48.0 MB</text>
<line x1="471.0" y1="126.0" x2="471.0" y2="416.0" stroke="#2c2c2a" stroke-width="1" />
<text x="471.0" y="433.0" font-size="11" fill="#898781" text-anchor="middle" font-weight="400" >100</text>
<line x1="561.3" y1="126.0" x2="561.3" y2="416.0" stroke="#2c2c2a" stroke-width="1" />
<text x="561.3" y="433.0" font-size="11" fill="#898781" text-anchor="middle" font-weight="400" >200</text>
<line x1="680.7" y1="126.0" x2="680.7" y2="416.0" stroke="#2c2c2a" stroke-width="1" />
<text x="680.7" y="433.0" font-size="11" fill="#898781" text-anchor="middle" font-weight="400" >500</text>
<line x1="396.0" y1="364.2" x2="696.0" y2="364.2" stroke="#2c2c2a" stroke-width="1" />
<text x="390.0" y="368.2" font-size="11" fill="#898781" text-anchor="end" font-weight="400" >3.5</text>
<line x1="396.0" y1="267.7" x2="696.0" y2="267.7" stroke="#2c2c2a" stroke-width="1" />
<text x="390.0" y="271.7" font-size="11" fill="#898781" text-anchor="end" font-weight="400" >4.0</text>
<line x1="396.0" y1="171.3" x2="696.0" y2="171.3" stroke="#2c2c2a" stroke-width="1" />
<text x="390.0" y="175.3" font-size="11" fill="#898781" text-anchor="end" font-weight="400" >4.5</text>
<line x1="396.0" y1="416.0" x2="696.0" y2="416.0" stroke="#383835" stroke-width="1" />
<path d="M627.4,396.7 L519.8,174.8 L414.1,169.1" fill="none" stroke="#3987e5" stroke-width="2" stroke-linejoin="round" stroke-linecap="round" opacity="0.85"/>
<rect x="622.5" y="391.7" width="9.9" height="9.9" rx="1.5" fill="#3987e5" stroke="#1a1a19" stroke-width="2"><title>zlib-ng level 1: 332.2 MB/s, ratio 3.332</title></rect>
<text x="635.4" y="389.7" font-size="10" fill="#898781" text-anchor="start" font-weight="400" >1</text>
<rect x="514.8" y="169.8" width="9.9" height="9.9" rx="1.5" fill="#3987e5" stroke="#1a1a19" stroke-width="2"><title>zlib-ng level 5: 145.4 MB/s, ratio 4.482</title></rect>
<text x="527.8" y="167.8" font-size="10" fill="#898781" text-anchor="start" font-weight="400" >5</text>
<rect x="409.1" y="164.2" width="9.9" height="9.9" rx="1.5" fill="#3987e5" stroke="#1a1a19" stroke-width="2"><title>zlib-ng level 9: 64.6 MB/s, ratio 4.511</title></rect>
<text x="422.1" y="162.1" font-size="10" fill="#898781" text-anchor="start" font-weight="400" >9</text>
<path d="M669.1,244.8 L511.1,174.5 L437.6,155.0" fill="none" stroke="#f7a41d" stroke-width="2" stroke-linejoin="round" stroke-linecap="round" opacity="0.85"/>
<circle cx="669.1" cy="244.8" r="5.5" fill="#f7a41d" stroke="#1a1a19" stroke-width="2"><title>zipir level 1: 457.4 MB/s, ratio 4.119</title></circle>
<text x="677.1" y="237.8" font-size="10" fill="#898781" text-anchor="start" font-weight="400" >1</text>
<circle cx="511.1" cy="174.5" r="5.5" fill="#f7a41d" stroke="#1a1a19" stroke-width="2"><title>zipir level 5: 136.1 MB/s, ratio 4.483</title></circle>
<text x="519.1" y="167.5" font-size="10" fill="#898781" text-anchor="start" font-weight="400" >5</text>
<circle cx="437.6" cy="155.0" r="5.5" fill="#f7a41d" stroke="#1a1a19" stroke-width="2"><title>zipir level 9: 77.4 MB/s, ratio 4.584</title></circle>
<text x="445.6" y="148.0" font-size="10" fill="#898781" text-anchor="start" font-weight="400" >9</text>
<text x="546.0" y="452.0" font-size="11" fill="#c3c2b7" text-anchor="middle" font-weight="400" >MB/s, log scale</text>
<text x="726.0" y="112.0" font-size="13" fill="#ffffff" text-anchor="start" font-weight="600" >General: Canterbury tar, 2.8 MB</text>
<line x1="726.0" y1="126.0" x2="726.0" y2="416.0" stroke="#2c2c2a" stroke-width="1" />
<text x="726.0" y="433.0" font-size="11" fill="#898781" text-anchor="middle" font-weight="400" >10</text>
<line x1="777.6" y1="126.0" x2="777.6" y2="416.0" stroke="#2c2c2a" stroke-width="1" />
<text x="777.6" y="433.0" font-size="11" fill="#898781" text-anchor="middle" font-weight="400" >20</text>
<line x1="845.8" y1="126.0" x2="845.8" y2="416.0" stroke="#2c2c2a" stroke-width="1" />
<text x="845.8" y="433.0" font-size="11" fill="#898781" text-anchor="middle" font-weight="400" >50</text>
<line x1="897.4" y1="126.0" x2="897.4" y2="416.0" stroke="#2c2c2a" stroke-width="1" />
<text x="897.4" y="433.0" font-size="11" fill="#898781" text-anchor="middle" font-weight="400" >100</text>
<line x1="949.0" y1="126.0" x2="949.0" y2="416.0" stroke="#2c2c2a" stroke-width="1" />
<text x="949.0" y="433.0" font-size="11" fill="#898781" text-anchor="middle" font-weight="400" >200</text>
<line x1="1017.3" y1="126.0" x2="1017.3" y2="416.0" stroke="#2c2c2a" stroke-width="1" />
<text x="1017.3" y="433.0" font-size="11" fill="#898781" text-anchor="middle" font-weight="400" >500</text>
<line x1="726.0" y1="388.3" x2="1026.0" y2="388.3" stroke="#2c2c2a" stroke-width="1" />
<text x="720.0" y="392.3" font-size="11" fill="#898781" text-anchor="end" font-weight="400" >2.5</text>
<line x1="726.0" y1="305.3" x2="1026.0" y2="305.3" stroke="#2c2c2a" stroke-width="1" />
<text x="720.0" y="309.3" font-size="11" fill="#898781" text-anchor="end" font-weight="400" >3.0</text>
<line x1="726.0" y1="222.4" x2="1026.0" y2="222.4" stroke="#2c2c2a" stroke-width="1" />
<text x="720.0" y="226.4" font-size="11" fill="#898781" text-anchor="end" font-weight="400" >3.5</text>
<line x1="726.0" y1="139.5" x2="1026.0" y2="139.5" stroke="#2c2c2a" stroke-width="1" />
<text x="720.0" y="143.5" font-size="11" fill="#898781" text-anchor="end" font-weight="400" >4.0</text>
<line x1="726.0" y1="416.0" x2="1026.0" y2="416.0" stroke="#383835" stroke-width="1" />
<path d="M964.8,396.7 L889.4,179.3 L728.3,164.9" fill="none" stroke="#3987e5" stroke-width="2" stroke-linejoin="round" stroke-linecap="round" opacity="0.85"/>
<rect x="959.9" y="391.7" width="9.9" height="9.9" rx="1.5" fill="#3987e5" stroke="#1a1a19" stroke-width="2"><title>zlib-ng level 1: 247.2 MB/s, ratio 2.449</title></rect>
<text x="972.8" y="389.7" font-size="10" fill="#898781" text-anchor="start" font-weight="400" >1</text>
<rect x="884.5" y="174.4" width="9.9" height="9.9" rx="1.5" fill="#3987e5" stroke="#1a1a19" stroke-width="2"><title>zlib-ng level 5: 89.8 MB/s, ratio 3.760</title></rect>
<text x="897.4" y="172.3" font-size="10" fill="#898781" text-anchor="start" font-weight="400" >5</text>
<rect x="723.3" y="159.9" width="9.9" height="9.9" rx="1.5" fill="#3987e5" stroke="#1a1a19" stroke-width="2"><title>zlib-ng level 9: 10.3 MB/s, ratio 3.847</title></rect>
<text x="736.3" y="157.9" font-size="10" fill="#898781" text-anchor="start" font-weight="400" >9</text>
<path d="M984.7,249.7 L891.9,163.9 L829.0,155.0" fill="none" stroke="#f7a41d" stroke-width="2" stroke-linejoin="round" stroke-linecap="round" opacity="0.85"/>
<circle cx="984.7" cy="249.7" r="5.5" fill="#f7a41d" stroke="#1a1a19" stroke-width="2"><title>zipir level 1: 323.0 MB/s, ratio 3.336</title></circle>
<text x="992.7" y="242.7" font-size="10" fill="#898781" text-anchor="start" font-weight="400" >1</text>
<circle cx="891.9" cy="163.9" r="5.5" fill="#f7a41d" stroke="#1a1a19" stroke-width="2"><title>zipir level 5: 92.9 MB/s, ratio 3.853</title></circle>
<text x="899.9" y="156.9" font-size="10" fill="#898781" text-anchor="start" font-weight="400" >5</text>
<circle cx="829.0" cy="155.0" r="5.5" fill="#f7a41d" stroke="#1a1a19" stroke-width="2"><title>zipir level 9: 39.9 MB/s, ratio 3.906</title></circle>
<text x="837.0" y="148.0" font-size="10" fill="#898781" text-anchor="start" font-weight="400" >9</text>
<text x="876.0" y="452.0" font-size="11" fill="#c3c2b7" text-anchor="middle" font-weight="400" >MB/s, log scale</text>
<text x="24.0" y="271.0" font-size="11" fill="#c3c2b7" text-anchor="middle" font-weight="400" transform="rotate(-90 24 271.0)">compression ratio</text>
<text x="28.0" y="492.0" font-size="12" fill="#898781" text-anchor="start" font-weight="400" >Ratio is plaintext bytes / compressed bytes. MB/s is plaintext MB (10^6 bytes) per second of median wall time. Each panel has its own scales.</text>
</svg>
